<svg width="1417" height="158" viewBox="0 0 1417 158" fill="none" xmlns="http://www.w3.org/2000/svg">
<g opacity="0.3" filter="url(#filter0_f_8_214)">
<path d="M893.608 -176.262C722.691 -160.709 621.261 -101.046 667.059 -43.0004C712.856 15.045 888.537 49.4917 1059.45 33.9384C1230.37 18.3853 1331.8 -41.2782 1286 -99.3235C1240.21 -157.369 1064.52 -191.815 893.608 -176.262Z" fill="url(#paint0_linear_8_214)"/>
<path d="M519 33.5507C739.362 33.5507 918 -15.1882 918 -75.3108C918 -135.433 739.362 -184.172 519 -184.172C298.638 -184.172 120 -135.433 120 -75.3108C120 -15.1882 298.638 33.5507 519 33.5507Z" fill="url(#paint1_linear_8_214)"/>
</g>
<defs>
<filter id="filter0_f_8_214" x="0" y="-304.172" width="1417" height="461.845" filterUnits="userSpaceOnUse" color-interpolation-filters="sRGB">
<feFlood flood-opacity="0" result="BackgroundImageFix"/>
<feBlend mode="normal" in="SourceGraphic" in2="BackgroundImageFix" result="shape"/>
<feGaussianBlur stdDeviation="60" result="effect1_foregroundBlur_8_214"/>
</filter>
<linearGradient id="paint0_linear_8_214" x1="685.93" y1="-47.3491" x2="1247.17" y2="89.67" gradientUnits="userSpaceOnUse">
<stop stop-color="#001AFF"/>
<stop offset="1" stop-color="#6EE5C2"/>
</linearGradient>
<linearGradient id="paint1_linear_8_214" x1="174.128" y1="-55.8496" x2="527.828" y2="-380.033" gradientUnits="userSpaceOnUse">
<stop stop-color="#FFC83A"/>
<stop offset="0.504191" stop-color="#FF008A"/>
<stop offset="1" stop-color="#6100FF"/>
</linearGradient>
</defs>
</svg>
