<?xml version="1.0" encoding="UTF-8"?><svg id="Layer_2" xmlns="http://www.w3.org/2000/svg" viewBox="0 0 74.14 113.36"><defs><style>.cls-1{fill:#fff;}</style></defs><g id="Layer_1-2"><g><path class="cls-1" d="M52.4-21.74h0V21.74c0,16.92-13.74,30.66-30.66,30.66h0V8.91c0-16.92,13.74-30.66,30.66-30.66Z" transform="translate(52.4 -21.74) rotate(90)"/><path class="cls-1" d="M52.4,17.47h0V60.95c0,16.92-13.74,30.66-30.66,30.66h0V48.12c0-16.92,13.74-30.66,30.66-30.66Z" transform="translate(91.61 17.47) rotate(90)"/><path class="cls-1" d="M0,39.21H0c14.31,0,25.92,11.62,25.92,25.92v48.22h0C11.62,113.36,0,101.74,0,87.43V39.21H0Z" transform="translate(25.92 152.57) rotate(180)"/></g></g></svg>